name C:\Users\u0101727\Documents\MyRepositories\upper-imu-dc\OpenSim\subject0\MA\MA_Splines\angle_in_n6_dof3_0.mot
datacolumns 4
datarows 58
range 0.01000000 0.58000000
endheader 
time	plane_elv	shoulder_elv	axial_rot	
          0.01000000	        -38.88248977	          3.42008115	        -37.11132463	
          0.02000000	        -16.93500119	          3.42008115	        -37.11132463	
          0.03000000	          5.01248739	          3.42008115	        -37.11132463	
          0.04000000	         26.95997597	          3.42008115	        -37.11132463	
          0.05000000	         48.90746455	          3.42008115	        -37.11132463	
          0.06000000	         70.85495313	          3.42008115	        -37.11132463	
          0.07000000	        -38.88248977	         20.99491893	        -37.11132463	
          0.08000000	        -16.93500119	         20.99491893	        -37.11132463	
          0.09000000	          5.01248739	         20.99491893	        -37.11132463	
          0.10000000	         26.95997597	         20.99491893	        -37.11132463	
          0.11000000	         48.90746455	         20.99491893	        -37.11132463	
          0.12000000	         70.85495313	         20.99491893	        -37.11132463	
          0.13000000	        -38.88248977	         38.56975671	        -37.11132463	
          0.14000000	        -16.93500119	         38.56975671	        -37.11132463	
          0.15000000	          5.01248739	         38.56975671	        -37.11132463	
          0.16000000	         26.95997597	         38.56975671	        -37.11132463	
          0.17000000	         48.90746455	         38.56975671	        -37.11132463	
          0.18000000	         70.85495313	         38.56975671	        -37.11132463	
          0.19000000	        -38.88248977	         56.14459450	        -37.11132463	
          0.20000000	        -16.93500119	         56.14459450	        -37.11132463	
          0.21000000	          5.01248739	         56.14459450	        -37.11132463	
          0.22000000	         26.95997597	         56.14459450	        -37.11132463	
          0.23000000	         48.90746455	         56.14459450	        -37.11132463	
          0.24000000	         70.85495313	         56.14459450	        -37.11132463	
          0.25000000	        -38.88248977	         73.71943228	        -37.11132463	
          0.26000000	        -16.93500119	         73.71943228	        -37.11132463	
          0.27000000	          5.01248739	         73.71943228	        -37.11132463	
          0.28000000	         26.95997597	         73.71943228	        -37.11132463	
          0.29000000	         48.90746455	         73.71943228	        -37.11132463	
          0.30000000	         70.85495313	         73.71943228	        -37.11132463	
          0.31000000	        -38.88248977	         91.29427006	        -37.11132463	
          0.32000000	        -16.93500119	         91.29427006	        -37.11132463	
          0.33000000	          5.01248739	         91.29427006	        -37.11132463	
          0.34000000	         26.95997597	         91.29427006	        -37.11132463	
          0.35000000	         48.90746455	         91.29427006	        -37.11132463	
          0.36000000	         70.85495313	         91.29427006	        -37.11132463	
          0.37000000	        -38.88248977	          3.42008115	        -16.94475375	
          0.38000000	        -16.93500119	          3.42008115	        -16.94475375	
          0.39000000	          5.01248739	          3.42008115	        -16.94475375	
          0.40000000	         26.95997597	          3.42008115	        -16.94475375	
          0.41000000	         48.90746455	          3.42008115	        -16.94475375	
          0.42000000	         70.85495313	          3.42008115	        -16.94475375	
          0.43000000	        -38.88248977	         20.99491893	        -16.94475375	
          0.44000000	        -16.93500119	         20.99491893	        -16.94475375	
          0.45000000	          5.01248739	         20.99491893	        -16.94475375	
          0.46000000	         26.95997597	         20.99491893	        -16.94475375	
          0.47000000	         48.90746455	         20.99491893	        -16.94475375	
          0.48000000	         70.85495313	         20.99491893	        -16.94475375	
          0.49000000	        -38.88248977	         38.56975671	        -16.94475375	
          0.50000000	        -16.93500119	         38.56975671	        -16.94475375	
          0.51000000	          5.01248739	         38.56975671	        -16.94475375	
          0.52000000	         26.95997597	         38.56975671	        -16.94475375	
          0.53000000	         48.90746455	         38.56975671	        -16.94475375	
          0.54000000	         70.85495313	         38.56975671	        -16.94475375	
          0.55000000	        -38.88248977	         56.14459450	        -16.94475375	
          0.56000000	        -16.93500119	         56.14459450	        -16.94475375	
          0.57000000	          5.01248739	         56.14459450	        -16.94475375	
          0.58000000	         26.95997597	         56.14459450	        -16.94475375	
